<?xml version="1.0" encoding="UTF-8"?>
<!DOCTYPE svg PUBLIC "-//W3C//DTD SVG 1.1//EN" "http://www.w3.org/Graphics/SVG/1.1/DTD/svg11.dtd">
<!-- Creator: CorelDRAW 2021 (64-Bit) -->
<svg xmlns="http://www.w3.org/2000/svg" xml:space="preserve" width="200px" height="73px" version="1.1" style="shape-rendering:geometricPrecision; text-rendering:geometricPrecision; image-rendering:optimizeQuality; fill-rule:evenodd; clip-rule:evenodd"
viewBox="0 0 200 73.12"
 xmlns:xlink="http://www.w3.org/1999/xlink"
 xmlns:xodm="http://www.corel.com/coreldraw/odm/2003">
 <defs>
  <style type="text/css">
   <![CDATA[
    .fil0 {fill:black}
    .fil1 {fill:white;fill-rule:nonzero}
   ]]>
  </style>
 </defs>
 <g id="Layer_x0020_1">
  <metadata id="CorelCorpID_0Corel-Layer"/>
  <rect class="fil0" width="200" height="73.12"/>
  <polygon class="fil1" points="11.74,53.16 11.74,20.01 19.56,20.01 19.56,32.18 32.34,32.18 32.34,20.01 40.12,20.01 40.12,53.16 32.34,53.16 32.34,39.25 19.56,39.25 19.56,53.16 "/>
  <path id="_1" class="fil1" d="M51.18 20.01l0 18.21c0,2.93 0.54,5.12 1.62,6.57 1.07,1.46 2.7,2.19 4.89,2.19 2.09,0 3.7,-0.68 4.8,-2.04 1.11,-1.35 1.67,-3.32 1.67,-5.91l0 -19.02 7.07 0 0 19.02c0,4.78 -1.23,8.52 -3.69,11.2 -2.45,2.67 -5.86,4.01 -10.22,4.01 -4.41,0 -7.84,-1.33 -10.29,-3.98 -2.44,-2.66 -3.67,-6.39 -3.67,-11.19l0 -19.06 7.82 0z"/>
  <path id="_2" class="fil1" d="M81.64 47.17l3.3 0c1.57,0 2.82,-0.39 3.73,-1.17 0.9,-0.78 1.36,-1.84 1.36,-3.2 0,-1.32 -0.45,-2.35 -1.33,-3.07 -0.88,-0.73 -2.14,-1.09 -3.76,-1.09l-3.3 0 0 8.53zm0 -14.05l2.63 0c1.56,0 2.77,-0.35 3.65,-1.02 0.87,-0.68 1.31,-1.64 1.31,-2.88 0,-1.24 -0.41,-2.14 -1.25,-2.72 -0.83,-0.59 -2.12,-0.87 -3.89,-0.87l-2.45 0 0 7.49zm-7.21 20.04l0 -33.15 10.25 0c3.86,0 6.78,0.7 8.75,2.11 1.97,1.41 2.97,3.51 2.97,6.28 0,1.7 -0.46,3.13 -1.35,4.31 -0.91,1.19 -2.27,2.1 -4.09,2.76 2.03,0.46 3.6,1.39 4.75,2.82 1.15,1.43 1.72,3.17 1.72,5.22 0,3.19 -1.18,5.59 -3.54,7.22 -2.36,1.62 -5.85,2.43 -10.47,2.43l-8.99 0z"/>
  <polygon id="_3" class="fil1" points="99.16,53.16 99.16,20.01 107.08,20.01 107.08,53.16 "/>
  <path id="_4" class="fil1" d="M109.25 43.8c2.03,1.24 3.77,2.11 5.2,2.62 1.42,0.5 2.8,0.75 4.16,0.75 1.37,0 2.47,-0.31 3.3,-0.91 0.83,-0.6 1.25,-1.37 1.25,-2.32 0,-1.35 -1.48,-2.88 -4.44,-4.56 -0.47,-0.28 -0.84,-0.49 -1.1,-0.64l-2.24 -1.27c-2.18,-1.23 -3.79,-2.63 -4.84,-4.18 -1.05,-1.55 -1.57,-3.32 -1.57,-5.28 0,-2.67 1,-4.86 3.02,-6.57 2,-1.71 4.6,-2.56 7.79,-2.56 1.17,0 2.45,0.14 3.81,0.42 1.38,0.27 2.9,0.7 4.58,1.28l0 7.76c-1.6,-1 -3.12,-1.77 -4.55,-2.32 -1.44,-0.54 -2.66,-0.82 -3.66,-0.82 -1.12,0 -1.99,0.25 -2.63,0.72 -0.64,0.48 -0.96,1.13 -0.96,1.95 0,0.58 0.18,1.12 0.56,1.62 0.39,0.51 0.96,0.96 1.72,1.37l3.89 2.15c3.25,1.8 5.44,3.46 6.56,4.99 1.13,1.53 1.69,3.33 1.69,5.42 0,3.23 -1.1,5.85 -3.3,7.84 -2.21,1.99 -5.13,2.98 -8.78,2.98 -1.23,0 -2.57,-0.13 -4.02,-0.39 -1.45,-0.26 -3.05,-0.67 -4.78,-1.21l-0.66 -8.84z"/>
  <path id="_5" class="fil1" d="M156.97 30.5c-1.43,-1.48 -2.89,-2.57 -4.35,-3.29 -1.48,-0.71 -3.02,-1.07 -4.64,-1.07 -2.8,0 -5.1,0.97 -6.88,2.9 -1.78,1.94 -2.67,4.43 -2.67,7.46 0,3.03 0.88,5.49 2.65,7.37 1.77,1.88 4.07,2.83 6.91,2.83 1.68,0 3.35,-0.35 5.02,-1.06 1.67,-0.7 3.33,-1.75 4.99,-3.16l-0.5 8.81c-1.43,0.96 -2.97,1.69 -4.66,2.19 -1.68,0.51 -3.43,0.76 -5.25,0.76 -1.95,0 -3.82,-0.31 -5.61,-0.92 -1.79,-0.6 -3.44,-1.51 -4.95,-2.7 -2.14,-1.67 -3.77,-3.72 -4.91,-6.14 -1.13,-2.41 -1.7,-5.05 -1.7,-7.9 0,-2.46 0.42,-4.76 1.26,-6.9 0.84,-2.15 2.06,-4.05 3.66,-5.7 1.61,-1.65 3.48,-2.9 5.6,-3.79 2.12,-0.87 4.35,-1.31 6.7,-1.31 1.86,0 3.63,0.26 5.33,0.78 1.69,0.52 3.31,1.31 4.84,2.36l-0.84 8.48z"/>
  <polygon id="_6" class="fil1" points="159.09,53.16 159.09,20.01 166.91,20.01 166.91,34.44 177.86,20.01 187.28,20.01 174.77,35.78 188.26,53.16 178.71,53.16 166.91,37.89 166.91,53.16 "/>
 </g>
</svg>
